<svg xmlns="http://www.w3.org/2000/svg" viewBox="0 0 60 60" style="width: 85%; height: 85%">
	<path d="M54,2.5H6c-3.252,0-6,2.748-6,6v33c0,3.252,2.748,6,6,6h14.555l8.702,9.669C29.446,57.38,29.717,57.5,30,57.5 s0.554-0.12,0.743-0.331l8.702-9.669H54c3.252,0,6-2.748,6-6v-33C60,5.248,57.252,2.5,54,2.5z M16,28.5c-2.206,0-4-1.794-4-4 s1.794-4,4-4s4,1.794,4,4S18.206,28.5,16,28.5z M30,28.5c-2.206,0-4-1.794-4-4s1.794-4,4-4s4,1.794,4,4S32.206,28.5,30,28.5z M44,28.5c-2.206,0-4-1.794-4-4s1.794-4,4-4s4,1.794,4,4S46.206,28.5,44,28.5z"/>
</svg>
