<svg xmlns="http://www.w3.org/2000/svg" viewBox="0 0 88 88" preserveAspectRatio="xMidYMid meet" style="width: 100%; height: 100%; transform: translate3d(0px, 0px, 0px);"><defs><clipPath id="__lottie_element_216"><rect width="88" height="88" x="0" y="0"></rect></clipPath></defs><g clip-path="url(#__lottie_element_216)"><g transform="matrix(1,0,0,1,44,44)" opacity="1" style="display: block;"><g opacity="1" transform="matrix(1,0,0,1,0,0)"><path fill="rgb(255,255,255)" fill-opacity="1" d=" M12.437999725341797,-12.70199966430664 C12.437999725341797,-12.70199966430664 9.618000030517578,-9.881999969482422 9.618000030517578,-9.881999969482422 C8.82800006866455,-9.092000007629395 8.82800006866455,-7.831999778747559 9.618000030517578,-7.052000045776367 C9.618000030517578,-7.052000045776367 16.687999725341797,0.017999999225139618 16.687999725341797,0.017999999225139618 C16.687999725341797,0.017999999225139618 9.618000030517578,7.0879998207092285 9.618000030517578,7.0879998207092285 C8.82800006866455,7.877999782562256 8.82800006866455,9.137999534606934 9.618000030517578,9.918000221252441 C9.618000030517578,9.918000221252441 12.437999725341797,12.748000144958496 12.437999725341797,12.748000144958496 C13.227999687194824,13.527999877929688 14.48799991607666,13.527999877929688 15.267999649047852,12.748000144958496 C15.267999649047852,12.748000144958496 26.58799934387207,1.437999963760376 26.58799934387207,1.437999963760376 C27.368000030517578,0.6579999923706055 27.368000030517578,-0.6119999885559082 26.58799934387207,-1.3919999599456787 C26.58799934387207,-1.3919999599456787 15.267999649047852,-12.70199966430664 15.267999649047852,-12.70199966430664 C14.48799991607666,-13.491999626159668 13.227999687194824,-13.491999626159668 12.437999725341797,-12.70199966430664z M-12.442000389099121,-12.70199966430664 C-13.182000160217285,-13.442000389099121 -14.362000465393066,-13.482000350952148 -15.142000198364258,-12.821999549865723 C-15.142000198364258,-12.821999549865723 -15.272000312805176,-12.70199966430664 -15.272000312805176,-12.70199966430664 C-15.272000312805176,-12.70199966430664 -26.582000732421875,-1.3919999599456787 -26.582000732421875,-1.3919999599456787 C-27.32200050354004,-0.6520000100135803 -27.36199951171875,0.5180000066757202 -26.70199966430664,1.3079999685287476 C-26.70199966430664,1.3079999685287476 -26.582000732421875,1.437999963760376 -26.582000732421875,1.437999963760376 C-26.582000732421875,1.437999963760376 -15.272000312805176,12.748000144958496 -15.272000312805176,12.748000144958496 C-14.531999588012695,13.48799991607666 -13.362000465393066,13.527999877929688 -12.571999549865723,12.868000030517578 C-12.571999549865723,12.868000030517578 -12.442000389099121,12.748000144958496 -12.442000389099121,12.748000144958496 C-12.442000389099121,12.748000144958496 -9.612000465393066,9.918000221252441 -9.612000465393066,9.918000221252441 C-8.871999740600586,9.178000450134277 -8.831999778747559,8.008000373840332 -9.501999855041504,7.2179999351501465 C-9.501999855041504,7.2179999351501465 -9.612000465393066,7.0879998207092285 -9.612000465393066,7.0879998207092285 C-9.612000465393066,7.0879998207092285 -16.68199920654297,0.017999999225139618 -16.68199920654297,0.017999999225139618 C-16.68199920654297,0.017999999225139618 -9.612000465393066,-7.052000045776367 -9.612000465393066,-7.052000045776367 C-8.871999740600586,-7.791999816894531 -8.831999778747559,-8.961999893188477 -9.501999855041504,-9.751999855041504 C-9.501999855041504,-9.751999855041504 -9.612000465393066,-9.881999969482422 -9.612000465393066,-9.881999969482422 C-9.612000465393066,-9.881999969482422 -12.442000389099121,-12.70199966430664 -12.442000389099121,-12.70199966430664z M28,-28 C32.41999816894531,-28 36,-24.420000076293945 36,-20 C36,-20 36,20 36,20 C36,24.420000076293945 32.41999816894531,28 28,28 C28,28 -28,28 -28,28 C-32.41999816894531,28 -36,24.420000076293945 -36,20 C-36,20 -36,-20 -36,-20 C-36,-24.420000076293945 -32.41999816894531,-28 -28,-28 C-28,-28 28,-28 28,-28z" data-darkreader-inline-fill="" style="--darkreader-inline-fill:#a8a6a4;"></path></g></g></g></svg>