<?xml version="1.0" standalone="no"?><!DOCTYPE svg PUBLIC "-//W3C//DTD SVG 1.1//EN" "http://www.w3.org/Graphics/SVG/1.1/DTD/svg11.dtd">
<svg t="1651038028334" class="icon" viewBox="0 0 1024 1024" version="1.1" xmlns="http://www.w3.org/2000/svg" p-id="3595" xmlns:xlink="http://www.w3.org/1999/xlink" width="22" height="22">
<path d="M825.8 498.005l-287.404-248.12c-10.695-9.188-26.396-0.882-26.396 14.023v496.298c0 14.905 15.701 23.182 26.396 13.995L825.8 525.995a18.859 18.859 0 0 0 0-27.99z m-320 0l-287.404-248.12c-10.695-9.188-26.396-0.882-26.396 14.023v496.298c0 14.905 15.701 23.182 26.396 13.995L505.8 525.995A18.603 18.603 0 0 0 512 512a18.603 18.603 0 0 0-6.2-13.995z" p-id="3596"></path>
</svg>