<?xml version="1.0" standalone="no"?>
<!DOCTYPE svg PUBLIC "-//W3C//DTD SVG 1.1//EN" "http://www.w3.org/Graphics/SVG/1.1/DTD/svg11.dtd">
<svg t="1652445277062" class="icon" viewBox="0 0 1024 1024" version="1.1" xmlns="http://www.w3.org/2000/svg" p-id="6034" xmlns:xlink="http://www.w3.org/1999/xlink" width="24" height="24">
<path d="M554.666667 810.666667v85.333333h-85.333334v-85.333333h85.333334zM170.666667 178.005333a42.666667 42.666667 0 0 1 34.986666 18.218667l203.904 291.328a42.666667 42.666667 0 0 1 0 48.896l-203.946666 291.328A42.666667 42.666667 0 0 1 128 803.328V220.672a42.666667 42.666667 0 0 1 42.666667-42.666667z m682.666666 0a42.666667 42.666667 0 0 1 42.368 37.717334l0.298667 4.949333v582.656a42.666667 42.666667 0 0 1-74.24 28.629333l-3.413333-4.181333-203.904-291.328a42.666667 42.666667 0 0 1-3.029334-43.861333l3.029334-5.034667 203.946666-291.328A42.666667 42.666667 0 0 1 853.333333 178.005333zM554.666667 640v85.333333h-85.333334v-85.333333h85.333334zM196.266667 319.104V716.8L335.957333 512 196.309333 319.104zM554.666667 469.333333v85.333334h-85.333334v-85.333334h85.333334z m0-170.666666v85.333333h-85.333334V298.666667h85.333334z m0-170.666667v85.333333h-85.333334V128h85.333334z" fill="#ffffff" p-id="6035">
</path>
</svg>