<?xml version="1.0" standalone="no"?>
<!DOCTYPE svg PUBLIC "-//W3C//DTD SVG 1.1//EN" "http://www.w3.org/Graphics/SVG/1.1/DTD/svg11.dtd">
<svg class="icon" width="30" height="30" viewBox="0 0 1024 1024" version="1.1" xmlns="http://www.w3.org/2000/svg">
<path fill="#ffffff" d="M804.51 219.49H219.49c-46.16 0-83.58 37.42-83.58 83.58v417.88c0 46.16 37.42 83.58 83.58 83.58h585.03c46.16 0 83.58-37.42 83.58-83.58V303.06c-0.01-46.16-37.43-83.57-83.59-83.57zM261.27 365.74v-41.86c0-11.5 9.32-20.82 20.82-20.82h114.99c17.31 0 31.34 14.03 31.34 31.34 0 17.31-14.03 31.34-31.34 31.34h-60.79c-6.82 0-12.34 5.52-12.34 12.34v60.79c0 17.31-14.03 31.34-31.34 31.34-17.31 0-31.34-14.03-31.34-31.34v-73.13z m135.82 355.2H282.1c-11.5 0-20.81-9.32-20.82-20.82V585.13c0-17.31 14.03-31.34 31.34-31.34 17.31 0 31.34 14.03 31.34 31.34v60.79c0 6.82 5.53 12.34 12.34 12.34h60.79c17.31 0 31.34 14.03 31.34 31.34-0.01 17.31-14.04 31.34-31.34 31.34z m365.64-62.68v41.86c0 11.5-9.32 20.82-20.82 20.82H626.92c-17.31 0-31.34-14.03-31.34-31.34 0-17.31 14.03-31.34 31.34-31.34h60.79c6.82 0 12.34-5.52 12.34-12.34v-60.79c0-17.31 14.03-31.34 31.34-31.34 17.31 0 31.34 14.03 31.34 31.34v73.13z m0-292.52v73.13c0 17.31-14.03 31.34-31.34 31.34-17.31 0-31.34-14.03-31.34-31.34v-60.79c0-6.81-5.53-12.34-12.34-12.34h-60.79c-17.31 0-31.34-14.03-31.34-31.34 0-17.31 14.03-31.34 31.34-31.34h114.99c11.5 0 20.82 9.32 20.82 20.82v41.86z" />
</svg>