<?xml version="1.0" standalone="no"?>
<!DOCTYPE svg PUBLIC "-//W3C//DTD SVG 1.1//EN" "http://www.w3.org/Graphics/SVG/1.1/DTD/svg11.dtd">
<svg class="icon" width="30" height="30" viewBox="0 0 1024 1024" version="1.1" xmlns="http://www.w3.org/2000/svg">
<path fill="#ffffff" d="M803.39 220.61H220.61c-45.98 0-83.25 37.27-83.25 83.25v416.27c0 45.98 37.27 83.25 83.25 83.25h582.78c45.98 0 83.25-37.27 83.25-83.25V303.86c0-45.98-37.27-83.25-83.25-83.25zM293.46 407.93h60.55c6.79 0 12.29-5.5 12.29-12.29v-60.55c0-17.24 13.98-31.22 31.22-31.22s31.22 13.98 31.22 31.22v114.55c0 11.45-9.28 20.74-20.74 20.74H293.45c-17.24 0-31.22-13.98-31.22-31.22 0.01-17.25 13.99-31.23 31.23-31.23z m135.29 208.14v72.85c0 17.24-13.98 31.22-31.22 31.22s-31.22-13.98-31.22-31.22v-60.55c0-6.79-5.51-12.29-12.29-12.29h-60.56c-17.24 0-31.22-13.98-31.22-31.22s13.98-31.22 31.22-31.22h114.55c11.45 0 20.73 9.28 20.74 20.74v41.69z m301.79 0h-60.55c-6.79 0-12.29 5.5-12.29 12.29v60.55c0 17.24-13.98 31.22-31.22 31.22s-31.22-13.98-31.22-31.22V574.36c0-11.46 9.29-20.74 20.74-20.74h114.55c17.24 0 31.22 13.98 31.22 31.22-0.01 17.25-13.98 31.23-31.23 31.23z m0-145.7H615.99c-11.45 0-20.74-9.29-20.74-20.74V335.08c0-17.24 13.98-31.22 31.22-31.22s31.22 13.98 31.22 31.22v60.56c0 6.79 5.51 12.29 12.29 12.29h60.56c17.24 0 31.22 13.98 31.22 31.22s-13.98 31.22-31.22 31.22z" />
</svg>