<?xml version="1.0" standalone="no"?>
<!DOCTYPE svg PUBLIC "-//W3C//DTD SVG 1.1//EN" "http://www.w3.org/Graphics/SVG/1.1/DTD/svg11.dtd">
<svg class="icon" width="18" height="18" viewBox="0 0 1152 1024" version="1.1" xmlns="http://www.w3.org/2000/svg">
<path fill="#ffffff" d="M1075.2 0H76.8A76.8 76.8 0 0 0 0 76.8v870.4A76.8 76.8 0 0 0 76.8 1024h998.4a76.8 76.8 0 0 0 76.8-76.8V76.8A76.8 76.8 0 0 0 1075.2 0zM1024 128v768H128V128h896zM448 192a64 64 0 0 1 7.488 127.552L448 320H320v128a64 64 0 0 1-56.512 63.552L256 512a64 64 0 0 1-63.552-56.512L192 448V262.592c0-34.432 25.024-66.112 61.632-70.144L261.632 192H448zM704 832a64 64 0 0 1-7.488-127.552L704 704h128V576a64 64 0 0 1 56.512-63.552L896 512a64 64 0 0 1 63.552 56.512L960 576v185.408c0 34.496-25.024 66.112-61.632 70.208l-8 0.384H704z" />
</svg>