<?xml version="1.0" standalone="no"?>
<!DOCTYPE svg PUBLIC "-//W3C//DTD SVG 1.1//EN" "http://www.w3.org/Graphics/SVG/1.1/DTD/svg11.dtd">
<svg t="1650612139149" class="icon" viewBox="0 0 1024 1024" version="1.1" xmlns="http://www.w3.org/2000/svg" p-id="12683" xmlns:xlink="http://www.w3.org/1999/xlink" width="20" height="20"><defs>
<style type="text/css"></style></defs><path d="M298.666667 426.666667V341.333333a213.333333 213.333333 0 1 1 426.666666 0v85.333334h42.666667a85.333333 85.333333 0 0 1 85.333333 85.333333v256a85.333333 85.333333 0 0 1-85.333333 85.333333H256a85.333333 85.333333 0 0 1-85.333333-85.333333v-256a85.333333 85.333333 0 0 1 85.333333-85.333333h42.666667z m213.333333-213.333334a128 128 0 0 0-128 128v85.333334h256V341.333333a128 128 0 0 0-128-128z" fill="#ffffff" p-id="12684"></path>
</svg>