<svg viewBox="0 0 1024 1024" xmlns="http://www.w3.org/2000/svg" width="22" height="22">
<path d="M844.8 219.648h-665.6c-6.144 0-10.24 4.608-10.24 10.752v563.2c0 5.632 4.096 10.24 10.24 10.24h256v92.16h-256a102.4 102.4 0 0 1-102.4-102.4v-563.2c0-56.832 45.568-102.4 102.4-102.4h665.6a102.4 102.4 0 0 1 102.4 102.4v204.8h-92.16v-204.8c0-6.144-4.608-10.752-10.24-10.752zM614.4 588.8c-28.672 0-51.2 22.528-51.2 51.2v204.8c0 28.16 22.528 51.2 51.2 51.2h281.6c28.16 0 51.2-23.04 51.2-51.2v-204.8c0-28.672-23.04-51.2-51.2-51.2H614.4z"></path>
</svg>