<?xml version="1.0" standalone="no"?>
<!DOCTYPE svg PUBLIC "-//W3C//DTD SVG 1.1//EN" "http://www.w3.org/Graphics/SVG/1.1/DTD/svg11.dtd">
<svg class="icon" viewBox="0 0 1152 1024" version="1.1" xmlns="http://www.w3.org/2000/svg">
<path fill="#fff" d="M311.296 661.504c0 4.096-4.096 8.704-8.704 12.8 0 4.096 0 4.096-4.096 8.704h-12.8c-4.096 0-8.704-4.096-16.896-8.704-8.704-8.704-16.896-8.704-25.6-8.704s-12.8 4.096-16.896 12.8c-4.096 12.8-8.704 21.504-4.096 29.696 4.096 8.704 12.8 16.896 25.6 21.504 16.896 8.704 34.304 16.896 47.104 16.896 12.8 0 21.504-4.096 34.304-8.704 8.704-4.096 16.896-16.896 25.6-29.696 8.704-12.8 12.8-34.304 16.896-55.296 4.096-21.504 4.096-51.2 4.096-85.504 0-12.8 0-21.504-4.096-29.696 0-8.704-4.096-12.8-8.704-16.896-4.096-4.096-8.704-8.704-12.8-8.704s-12.8-4.096-21.504-4.096H272.896s-4.096-4.096 0-8.704l4.096-38.4c0-4.096 0-8.704 4.096-8.704h47.104c16.896 0 25.6-4.096 34.304-12.8 8.704-8.704 12.8-21.504 12.8-42.496V324.096c0-16.896-4.096-34.304-8.704-42.496-12.8-12.8-25.6-16.896-42.496-16.896H243.2c-8.704 0-16.896 0-21.504 4.096-4.096 8.704-4.096 12.8-4.096 25.6 0 8.704 0 16.896 4.096 21.504 4.096 4.096 12.8 8.704 21.504 8.704H307.2c4.096 0 8.704 0 8.704 4.096v34.304c0 8.704 0 12.8-4.096 12.8 0 0-4.096 4.096-8.704 4.096h-34.304c-8.704 0-12.8 0-21.504 4.096-4.096 0-8.704 4.096-8.704 4.096-4.096 4.096-8.704 12.8-8.704 16.896 0 8.704-4.096 16.896-4.096 25.6l-8.704 72.704v29.696c0 8.704 4.096 12.8 8.704 16.896s8.704 4.096 16.896 8.704h68.096c4.096 0 8.704 0 8.704 4.096s4.096 8.704 4.096 16.896c0 21.504 0 42.496-4.096 55.296 0.512 9.216-3.584 22.016-8.192 26.624zM896 486.4c-93.696 0-175.104 51.2-217.6 123.904h-106.496v-34.304H640c21.504 0 34.304-4.096 42.496-12.8 8.704-8.704 12.8-21.504 12.8-42.496V358.4c0-21.504-4.096-34.304-12.8-42.496-8.704-8.704-21.504-12.8-42.496-12.8 0-4.096 4.096-4.096 4.096-8.704-4.096 0-4.096-4.096-4.096-4.096 4.096-12.8 8.704-21.504 4.096-25.6 0-8.704-4.096-12.8-12.8-21.504-8.704-4.096-16.896-4.096-21.504-4.096-8.704 4.096-12.8 8.704-21.504 21.504-4.096 8.704-8.704 12.8-12.8 21.504-4.096 8.704-8.704 12.8-12.8 21.504h-51.2c-4.096-8.704-8.704-16.896-8.704-21.504-4.096-8.704-8.704-12.8-12.8-21.504-4.096-12.8-12.8-16.896-21.504-16.896s-16.896 0-25.6 8.704C434.176 261.12 430.08 265.216 430.08 273.92c0 8.704 0 16.896 8.704 25.6l4.096 4.096 4.096 4.096c-16.896 0-29.696 4.096-38.4 12.8-8.704 4.096-12.8 21.504-12.8 38.4v157.696c0 21.504 4.096 34.304 12.8 42.496 8.704 8.704 21.504 12.8 42.496 12.8H512v34.304H413.696c-12.8 0-21.504 0-25.6 4.096-4.096 4.096-8.704 8.704-8.704 21.504v16.896c0 4.096 4.096 8.704 4.096 8.704 4.096 0 4.096 4.096 8.704 4.096H512V716.8c0 12.8 4.096 21.504 8.704 25.6 4.096 4.096 12.8 8.704 21.504 8.704 12.8 0 21.504-4.096 25.6-8.704 4.096-4.096 4.096-12.8 4.096-25.6v-55.296h80.896c-8.704 25.6-12.8 51.2-12.8 76.8 0 140.8 115.2 256 256 256s256-115.2 256-256S1036.8 486.4 896 486.4z m-328.704-128h55.296c4.096 0 4.096 0 4.096 4.096V409.6h-59.904V358.4z m0 102.4h59.904v51.2h-55.296V460.8h-4.608zM512 516.096H456.704v-51.2H512v51.2z m0-102.4H452.096v-51.2H512v51.2z m384 499.2c-93.696 0-170.496-76.8-170.496-170.496s76.8-170.496 170.496-170.496 170.496 76.8 170.496 170.496-76.8 170.496-170.496 170.496z"  />
<path fill="#fff" d="M580.096 879.104H213.504c-72.704 0-128-55.296-128-119.296V230.4c0-64 55.296-119.296 128-119.296h512c72.704 0 128 55.296 128 119.296v140.8c0 25.6 16.896 42.496 42.496 42.496s42.496-16.896 42.496-42.496V230.4c0-115.2-93.696-204.8-213.504-204.8h-512C93.696 25.6 0 119.296 0 230.4v528.896c0 115.2 93.696 204.8 213.504 204.8h367.104c25.6 0 42.496-16.896 42.496-42.496 0-25.6-21.504-42.496-43.008-42.496z m171.52 10.752c-15.36-15.36-15.36-40.96 0-56.32l237.568-237.568c15.36-15.36 40.96-15.36 56.32 0s15.36 40.96 0 56.32l-237.568 237.568c-15.36 15.36-40.448 15.36-56.32 0z"  />
</svg>