<svg class="apd-icon apd-mode-0-off" xmlns:xlink="http://www.w3.org/1999/xlink" xmlns="http://www.w3.org/2000/svg" xml:space="preserve" data-pointer="none" style="enable-background:new 0 0 28 28" viewBox="0 0 28 28" width="28"  height="28" ><path d="M23 15c1.487 0 2.866.464 4 1.255V7a4 4 0 0 0-4-4H5a4 4 0 0 0-4 4v14a4 4 0 0 0 4 4h11.674A7 7 0 0 1 23 15zM11 9h6a1 1 0 0 1 0 2h-6a1 1 0 0 1 0-2zm-3 2H6V9h2v2zm4 4h-2v-2h2v2zm2-1a1 1 0 0 1 1-1h1a1 1 0 0 1 0 2h-1a1 1 0 0 1-1-1z" fill="#00AEEC"></path><path d="M26.536 18.464a5 5 0 0 0-7.071 0 5 5 0 0 0 0 7.071 5 5 0 1 0 7.071-7.071zm-5.657 5.657a3 3 0 0 1-.586-3.415l4.001 4.001a3 3 0 0 1-3.415-.586zm4.829-.827-4.001-4.001a3.002 3.002 0 0 1 4.001 4.001z" fill="#00AEEC"></path></svg>