<svg class="apd-icon apd-style-icon" xmlns:xlink="http://www.w3.org/1999/xlink" xmlns="http://www.w3.org/2000/svg" xml:space="preserve" data-pointer="none" style="enable-background:new 0 0 22 22" viewBox="0 0 22 22" width="36"  height="24" ><path d="M17 16H5c-.55 0-1 .45-1 1s.45 1 1 1h12c.55 0 1-.45 1-1s-.45-1-1-1zM6.96 15c.39 0 .74-.24.89-.6l.65-1.6h5l.66 1.6c.15.36.5.6.89.6.69 0 1.15-.71.88-1.34l-3.88-8.97C11.87 4.27 11.46 4 11 4s-.87.27-1.05.69l-3.88 8.97c-.27.63.2 1.34.89 1.34zM11 5.98 12.87 11H9.13L11 5.98z"></path></svg>