<?xml version="1.0" standalone="no"?>
<!DOCTYPE svg PUBLIC "-//W3C//DTD SVG 1.1//EN" "http://www.w3.org/Graphics/SVG/1.1/DTD/svg11.dtd">
<svg class="icon" viewBox="0 0 1152 1024" version="1.1" xmlns="http://www.w3.org/2000/svg">
<path fill="#fff" d="M311.466667 661.333333c0 4.266667-4.266667 8.533333-8.533334 12.8 0 4.266667 0 4.266667-4.266666 8.533334h-12.8c-4.266667 0-8.533333-4.266667-17.066667-8.533334-8.533333-8.533333-17.066667-8.533333-25.6-8.533333-8.533333 0-12.8 4.266667-17.066667 12.8-4.266667 12.8-8.533333 21.333333-4.266666 29.866667 4.266667 8.533333 12.8 17.066667 25.6 21.333333 17.066667 8.533333 34.133333 17.066667 46.933333 17.066667 12.8 0 21.333333-4.266667 34.133333-8.533334 8.533333-4.266667 17.066667-17.066667 25.6-29.866666 8.533333-12.8 12.8-34.133333 17.066667-55.466667 4.266667-21.333333 4.266667-51.2 4.266667-85.333333 0-12.8 0-21.333333-4.266667-29.866667 0-8.533333-4.266667-12.8-8.533333-17.066667-4.266667-4.266667-8.533333-8.533333-12.8-8.533333-4.266667 0-12.8-4.266667-21.333334-4.266667H273.066667s-4.266667-4.266667 0-8.533333l4.266666-38.4c0-4.266667 0-8.533333 4.266667-8.533333h46.933333c17.066667 0 25.6-4.266667 34.133334-12.8 8.533333-8.533333 12.8-21.333333 12.8-42.666667V324.266667c0-17.066667-4.266667-34.133333-8.533334-42.666667-12.8-12.8-25.6-17.066667-42.666666-17.066667H243.2c-8.533333 0-17.066667 0-21.333333 4.266667-4.266667 8.533333-4.266667 12.8-4.266667 25.6 0 8.533333 0 17.066667 4.266667 21.333333 4.266667 4.266667 12.8 8.533333 21.333333 8.533334h64c4.266667 0 8.533333 0 8.533333 4.266666v34.133334c0 8.533333 0 12.8-4.266666 12.8 0 0-4.266667 4.266667-8.533334 4.266666h-34.133333c-8.533333 0-12.8 0-21.333333 4.266667-4.266667 0-8.533333 4.266667-8.533334 4.266667-4.266667 4.266667-8.533333 12.8-8.533333 17.066666 0 8.533333-4.266667 17.066667-4.266667 25.6l-8.533333 72.533334v29.866666c0 8.533333 4.266667 12.8 8.533333 17.066667 4.266667 4.266667 8.533333 4.266667 17.066667 8.533333h68.266667c4.266667 0 8.533333 0 8.533333 4.266667s4.266667 8.533333 4.266667 17.066667c0 21.333333 0 42.666667-4.266667 55.466666 0 8.533333-4.266667 21.333333-8.533333 25.6zM896 486.4c-93.866667 0-174.933333 51.2-217.6 123.733333h-106.666667v-34.133333H640c21.333333 0 34.133333-4.266667 42.666667-12.8 8.533333-8.533333 12.8-21.333333 12.8-42.666667V358.4c0-21.333333-4.266667-34.133333-12.8-42.666667-8.533333-8.533333-21.333333-12.8-42.666667-12.8 0-4.266667 4.266667-4.266667 4.266667-8.533333-4.266667 0-4.266667-4.266667-4.266667-4.266667 4.266667-12.8 8.533333-21.333333 4.266667-25.6 0-8.533333-4.266667-12.8-12.8-21.333333-8.533333-4.266667-17.066667-4.266667-21.333334-4.266667-8.533333 4.266667-12.8 8.533333-21.333333 21.333334-4.266667 8.533333-8.533333 12.8-12.8 21.333333-4.266667 8.533333-8.533333 12.8-12.8 21.333333H512c-4.266667-8.533333-8.533333-17.066667-8.533333-21.333333-4.266667-8.533333-8.533333-12.8-12.8-21.333333-4.266667-12.8-12.8-17.066667-21.333334-17.066667s-17.066667 0-25.6 8.533333c-8.533333 8.533333-12.8 12.8-12.8 21.333334s0 17.066667 8.533334 25.6l4.266666 4.266666 4.266667 4.266667c-17.066667 0-29.866667 4.266667-38.4 12.8-8.533333 4.266667-12.8 21.333333-12.8 38.4v157.866667c0 21.333333 4.266667 34.133333 12.8 42.666666 8.533333 8.533333 21.333333 12.8 42.666667 12.8H512v34.133334H413.866667c-12.8 0-21.333333 0-25.6 4.266666-4.266667 4.266667-8.533333 8.533333-8.533334 21.333334v17.066666c0 4.266667 4.266667 8.533333 4.266667 8.533334 4.266667 0 4.266667 4.266667 8.533333 4.266666H512v55.466667c0 12.8 4.266667 21.333333 8.533333 25.6 4.266667 4.266667 12.8 8.533333 21.333334 8.533333 12.8 0 21.333333-4.266667 25.6-8.533333 4.266667-4.266667 4.266667-12.8 4.266666-25.6v-55.466667h81.066667c-8.533333 25.6-12.8 51.2-12.8 76.8 0 140.8 115.2 256 256 256s256-115.2 256-256-115.2-251.733333-256-251.733333z m-328.533333-128h55.466666c4.266667 0 4.266667 0 4.266667 4.266667v46.933333h-59.733333V358.4z m0 102.4h59.733333V512h-55.466667v-51.2zM512 516.266667h-55.466667V465.066667H512v51.2z m0-102.4h-59.733333V366.933333v-4.266666H512v51.2z m384 499.2c-93.866667 0-170.666667-76.8-170.666667-170.666667s76.8-170.666667 170.666667-170.666667 170.666667 76.8 170.666667 170.666667-76.8 170.666667-170.666667 170.666667z"  />
<path fill="#fff" d="M951.466667 669.866667l-72.533334 72.533333-29.866666-25.6c-17.066667-17.066667-42.666667-12.8-59.733334 4.266667-17.066667 17.066667-12.8 42.666667 4.266667 59.733333l59.733333 51.2c8.533333 8.533333 17.066667 8.533333 29.866667 8.533333 12.8 0 21.333333-4.266667 29.866667-12.8l102.4-102.4c17.066667-17.066667 17.066667-42.666667 0-59.733333-21.333333-12.8-46.933333-12.8-64 4.266667zM580.266667 878.933333H213.333333c-72.533333 0-128-55.466667-128-119.466666V230.4c0-64 55.466667-119.466667 128-119.466667h512c72.533333 0 128 55.466667 128 119.466667v140.8c0 25.6 17.066667 42.666667 42.666667 42.666667s42.666667-17.066667 42.666667-42.666667V230.4c0-115.2-93.866667-204.8-213.333334-204.8H213.333333C93.866667 25.6 0 119.466667 0 230.4v529.066667c0 115.2 93.866667 204.8 213.333333 204.8h366.933334c25.6 0 42.666667-17.066667 42.666666-42.666667s-21.333333-42.666667-42.666666-42.666667z"  />
</svg>